<svg width="20" height="20" viewBox="0 0 20 20" fill="none" xmlns="http://www.w3.org/2000/svg">
<g clip-path="url(#clip0_233_95)">
<path d="M12.5 2.5H13.75V3.75H12.5V2.5ZM15 2.5H16.25V3.75H15V2.5ZM12.5 5H13.75V6.25H12.5V5ZM15 5H16.25V6.25H15V5ZM12.5 7.5H13.75V8.75H12.5V7.5ZM15 7.5H16.25V8.75H15V7.5ZM12.5 10H13.75V11.25H12.5V10ZM15 10H16.25V11.25H15V10ZM12.5 12.5H13.75V13.75H12.5V12.5ZM15 12.5H16.25V13.75H15V12.5ZM17.5 0H11.25C10.9185 0 10.6005 0.131696 10.3661 0.366117C10.1317 0.600537 10 0.918479 10 1.25V5H3.75C3.41848 5 3.10054 5.1317 2.86612 5.36612C2.6317 5.60054 2.5 5.91848 2.5 6.25V18.75C2.5 19.0815 2.6317 19.3995 2.86612 19.6339C3.10054 19.8683 3.41848 20 3.75 20H17.5C17.8315 20 18.1495 19.8683 18.3839 19.6339C18.6183 19.3995 18.75 19.0815 18.75 18.75V1.25C18.75 0.918479 18.6183 0.600537 18.3839 0.366117C18.1495 0.131696 17.8315 0 17.5 0ZM7.5 18.75H6.25V16.25H7.5V18.75ZM8.75 18.75V15H5V18.75H3.75V6.25H10V18.75H8.75ZM15 18.75H13.75V16.25H15V18.75ZM17.5 18.75H16.25V15H12.5V18.75H11.25V1.25H17.5V18.75ZM5 7.5H6.25V8.75H5V7.5ZM7.5 7.5H8.75V8.75H7.5V7.5ZM5 10H6.25V11.25H5V10ZM7.5 10H8.75V11.25H7.5V10ZM5 12.5H6.25V13.75H5V12.5ZM7.5 12.5H8.75V13.75H7.5V12.5Z" fill="#4E61C9"/>
</g>
<defs>
<clipPath id="clip0_233_95">
<rect width="20" height="20" fill="white"/>
</clipPath>
</defs>
</svg>
