<svg width="20" height="20" viewBox="0 0 20 20" fill="none" xmlns="http://www.w3.org/2000/svg">
<g clip-path="url(#clip0_233_93)">
<path d="M5.9495 1.3546H4.5949V0.5578C4.5949 0.4151 4.6494 0.2724 4.7584 0.1635C4.8101 0.111599 4.87155 0.0704333 4.93922 0.0423734C5.00689 0.0143134 5.07944 -8.71487e-05 5.1527 4.07606e-07H5.3919C5.5344 4.07606e-07 5.6773 0.0546004 5.786 0.1635C5.8379 0.215198 5.87905 0.276653 5.9071 0.344324C5.93514 0.411996 5.94952 0.484548 5.9494 0.5578L5.9495 1.3546ZM8.3134 0.5578C8.31347 0.484573 8.2991 0.41205 8.27109 0.344389C8.24309 0.276727 8.202 0.215257 8.1502 0.1635C8.09844 0.111594 8.03694 0.0704284 7.96922 0.0423695C7.9015 0.0143106 7.8289 -8.83234e-05 7.7556 4.07606e-07H7.5166C7.44332 -6.41955e-05 7.37074 0.0143461 7.30304 0.042404C7.23534 0.0704619 7.17385 0.111615 7.1221 0.1635C7.07029 0.215256 7.0292 0.276723 7.00117 0.344384C6.97315 0.412044 6.95875 0.484567 6.9588 0.5578V1.3546H8.3134V0.5578ZM10.6771 0.5578C10.6772 0.484579 10.6628 0.412059 10.6348 0.344397C10.6069 0.276735 10.5658 0.215262 10.514 0.1635C10.4623 0.111602 10.4008 0.0704398 10.3331 0.042381C10.2654 0.0143222 10.1928 -8.06218e-05 10.1195 4.07606e-07H9.8805C9.80722 -8.06218e-05 9.73464 0.0143222 9.66694 0.042381C9.59923 0.0704398 9.53774 0.111602 9.486 0.1635C9.43415 0.215229 9.39304 0.276692 9.36501 0.344358C9.33699 0.412024 9.32261 0.484561 9.3227 0.5578V1.3546H10.677V0.5578H10.6771ZM13.0413 0.5578C13.0413 0.48456 13.0269 0.412033 12.9989 0.344372C12.9708 0.276711 12.9297 0.215247 12.8779 0.1635C12.8261 0.111625 12.7646 0.0704798 12.6969 0.042423C12.6292 0.0143663 12.5566 -5.00233e-05 12.4833 4.07606e-07H12.2441C12.1709 -7.17438e-05 12.0984 0.0143366 12.0307 0.0423965C11.9631 0.0704563 11.9017 0.111614 11.85 0.1635C11.7981 0.21518 11.7569 0.276629 11.7288 0.344303C11.7008 0.411978 11.6864 0.484539 11.6865 0.5578V1.3546H13.0413V0.5578ZM15.4048 0.5578C15.4049 0.484546 15.3906 0.411989 15.3625 0.344315C15.3345 0.276641 15.2933 0.215188 15.2414 0.1635C15.1897 0.111618 15.1283 0.0704637 15.0607 0.0424041C14.993 0.0143446 14.9205 -6.62592e-05 14.8473 4.07606e-07H14.608C14.5348 -6.07768e-05 14.4623 0.0143526 14.3946 0.0424118C14.327 0.070471 14.2656 0.111623 14.2139 0.1635C14.162 0.215193 14.1208 0.276645 14.0928 0.344316C14.0647 0.411988 14.0503 0.484542 14.0504 0.5578V1.3546H15.4048V0.5578ZM0.557801 14.0504C0.484541 14.0503 0.411984 14.0647 0.344311 14.0927C0.276638 14.1208 0.215187 14.162 0.163501 14.2139C0.111531 14.2656 0.0703229 14.3271 0.042259 14.3948C0.0141952 14.4625 -0.000167487 14.5351 1.49361e-06 14.6084V14.8473C1.49361e-06 14.9902 0.0544015 15.1327 0.163501 15.2418C0.215247 15.2936 0.276708 15.3348 0.344368 15.3628C0.412027 15.3909 0.484556 15.4053 0.557801 15.4053H1.3546V14.0504H0.557801ZM0.557801 11.6865C0.484538 11.6864 0.411974 11.7008 0.344298 11.7288C0.276622 11.7569 0.215174 11.7981 0.163501 11.85C0.111531 11.9017 0.0703229 11.9632 0.042259 12.0309C0.0141952 12.0986 -0.000167487 12.1712 1.49361e-06 12.2445V12.4833C1.49361e-06 12.6263 0.0544015 12.7687 0.163501 12.8779C0.215271 12.9297 0.276748 12.9707 0.34441 12.9987C0.412071 13.0267 0.484587 13.041 0.557801 13.0409H1.3546V11.6865H0.557801ZM0.557801 9.3227C0.484538 9.32257 0.411974 9.33695 0.344298 9.36501C0.276622 9.39307 0.215174 9.43426 0.163501 9.4862C0.111533 9.53785 0.0703237 9.59929 0.042259 9.66697C0.0141943 9.73466 -0.000168621 9.80723 1.49361e-06 9.8805V10.1195C1.49361e-06 10.2623 0.0544015 10.4049 0.163501 10.5139C0.215247 10.5657 0.276708 10.6069 0.344368 10.6349C0.412027 10.663 0.484556 10.6774 0.557801 10.6774H1.3546V9.3227H0.557801ZM0.557801 6.9588C0.484548 6.95873 0.412003 6.97315 0.344336 7.0012C0.276669 7.02926 0.215214 7.07042 0.163501 7.1223C0.111584 7.17395 0.0704058 7.23536 0.0423438 7.303C0.0142817 7.37064 -0.000109114 7.44317 1.49361e-06 7.5164V7.7556C-0.000103686 7.82891 0.0142877 7.90151 0.0423475 7.96923C0.0704074 8.03695 0.111582 8.09845 0.163501 8.1502C0.215262 8.202 0.276732 8.24308 0.344393 8.27108C0.412054 8.29909 0.484574 8.31347 0.557801 8.3134H1.3546V6.9588H0.557801ZM0.557801 4.5951C0.484557 4.59498 0.412011 4.60934 0.34434 4.63737C0.27667 4.66539 0.215211 4.70653 0.163501 4.7584C0.111564 4.81007 0.0703754 4.87152 0.042313 4.9392C0.0142505 5.00687 -0.00013003 5.07944 1.49361e-06 5.1527V5.3917C1.49361e-06 5.5347 0.0544015 5.6776 0.163501 5.7861C0.215199 5.838 0.276654 5.87915 0.344325 5.9072C0.411997 5.93524 0.484549 5.94962 0.557801 5.9495H1.3546V4.5951H0.557801ZM18.6456 14.0504V15.4053H19.4424C19.5157 15.4053 19.5882 15.3909 19.6559 15.3629C19.7236 15.3349 19.7851 15.2938 19.8369 15.2419C19.8887 15.1901 19.9298 15.1286 19.9578 15.0609C19.9857 14.9931 20.0001 14.9206 20 14.8473V14.6084C20.0001 14.5351 19.9858 14.4626 19.9578 14.3949C19.9298 14.3272 19.8887 14.2657 19.8369 14.2139C19.7851 14.162 19.7237 14.1209 19.656 14.0928C19.5883 14.0647 19.5157 14.0503 19.4424 14.0504H18.6456ZM18.6456 11.6865V13.0409H19.4424C19.5156 13.041 19.5882 13.0266 19.6559 12.9987C19.7236 12.9707 19.7851 12.9297 19.8369 12.8779C19.8887 12.8261 19.9298 12.7645 19.9577 12.6968C19.9857 12.6291 20.0001 12.5566 20 12.4833V12.2445C20.0001 12.1712 19.9858 12.0987 19.9578 12.031C19.9298 11.9633 19.8887 11.9018 19.8369 11.85C19.7852 11.7981 19.7237 11.7569 19.656 11.7289C19.5883 11.7008 19.5157 11.6864 19.4424 11.6865H18.6456ZM18.6456 9.3227V10.6774H19.4424C19.5904 10.6774 19.7323 10.6186 19.8369 10.5139C19.8887 10.4621 19.9297 10.4006 19.9577 10.3329C19.9857 10.2653 20.0001 10.1927 20 10.1195V9.8805C20.0001 9.80727 19.9858 9.73474 19.9578 9.66708C19.9298 9.59941 19.8887 9.53794 19.8369 9.4862C19.7851 9.43432 19.7237 9.39316 19.656 9.3651C19.5883 9.33705 19.5157 9.32264 19.4424 9.3227H18.6456ZM18.6456 6.9588V8.3134H19.4424C19.5157 8.31347 19.5882 8.29908 19.6559 8.27107C19.7236 8.24306 19.7851 8.20197 19.8369 8.15016C19.8887 8.09835 19.9298 8.03683 19.9577 7.96912C19.9857 7.90142 20.0001 7.82886 20 7.7556V7.5164C20 7.44316 19.9856 7.37064 19.9576 7.30297C19.9296 7.2353 19.8886 7.17382 19.8368 7.12203C19.785 7.07024 19.7235 7.02917 19.6558 7.00117C19.5882 6.97316 19.5156 6.95876 19.4424 6.9588H18.6456ZM18.6456 4.5951V5.9495H19.4424C19.5157 5.94959 19.5883 5.93521 19.656 5.90717C19.7237 5.87912 19.7852 5.83798 19.8369 5.7861C19.8887 5.73436 19.9298 5.67288 19.9578 5.60519C19.9858 5.5375 20.0002 5.46495 20 5.3917V5.1527C20.0001 5.07946 19.9857 5.00692 19.9577 4.93924C19.9297 4.87156 19.8886 4.81006 19.8368 4.75827C19.785 4.70648 19.7235 4.66541 19.6559 4.63741C19.5882 4.60941 19.5156 4.59503 19.4424 4.5951H18.6456ZM5.9495 18.6456H4.5949V19.4424C4.5949 19.5849 4.6494 19.7278 4.7584 19.8365C4.81009 19.8884 4.87154 19.9296 4.93921 19.9577C5.00688 19.9857 5.07944 20.0001 5.1527 20H5.3919C5.46513 20.0001 5.53766 19.9857 5.6053 19.9577C5.67294 19.9296 5.73436 19.8884 5.786 19.8365C5.8379 19.7848 5.87905 19.7234 5.9071 19.6558C5.93514 19.5881 5.94952 19.5156 5.9494 19.4424L5.9495 18.6456ZM8.3134 18.6456H6.9588V19.4424C6.9588 19.5849 7.0134 19.7278 7.1221 19.8365C7.17383 19.8884 7.23532 19.9296 7.30302 19.9577C7.37073 19.9857 7.44331 20.0001 7.5166 20H7.7556C7.8289 20.0001 7.9015 19.9857 7.96922 19.9576C8.03693 19.9296 8.09844 19.8884 8.1502 19.8365C8.20199 19.7848 8.24307 19.7233 8.27108 19.6557C8.29908 19.5881 8.31346 19.5156 8.3134 19.4424V18.6456ZM10.6771 18.6456H9.3227V19.4424C9.32258 19.5156 9.33695 19.5881 9.36497 19.6558C9.393 19.7234 9.43413 19.7848 9.486 19.8365C9.53773 19.8884 9.59921 19.9296 9.66692 19.9577C9.73462 19.9857 9.80721 20.0001 9.8805 20H10.1195C10.1928 20.0001 10.2654 19.9857 10.333 19.9577C10.4007 19.9296 10.4622 19.8884 10.5139 19.8365C10.5657 19.7848 10.6067 19.7233 10.6347 19.6557C10.6627 19.5881 10.6771 19.5156 10.677 19.4424V18.6456H10.6771ZM13.0413 18.6456H11.6865V19.4424C11.6865 19.5849 11.7408 19.7278 11.85 19.8365C11.9016 19.8884 11.9631 19.9296 12.0307 19.9577C12.0983 19.9857 12.1709 20.0001 12.2441 20H12.4833C12.5566 20.0001 12.6292 19.9857 12.6969 19.9576C12.7646 19.9295 12.8261 19.8884 12.8779 19.8365C12.9297 19.7848 12.9708 19.7234 12.9989 19.6557C13.0269 19.5881 13.0413 19.5156 13.0413 19.4424V18.6456ZM15.4048 18.6456H14.0504V19.4424C14.0504 19.5849 14.1048 19.7278 14.2139 19.8365C14.2656 19.8884 14.327 19.9296 14.3946 19.9576C14.4623 19.9857 14.5348 20.0001 14.608 20H14.8473C14.9205 20.0001 14.9931 19.9857 15.0607 19.9577C15.1283 19.9296 15.1898 19.8884 15.2414 19.8365C15.2933 19.7848 15.3345 19.7234 15.3625 19.6558C15.3905 19.5881 15.4049 19.5156 15.4048 19.4424V18.6456ZM4.8467 3.3866L3.3864 4.8467V15.1532L4.8467 16.6133H15.1532L16.6133 15.1532V4.8467L15.1532 3.3866H4.8467ZM7.6024 9.5782L7.0212 9.6704V9.198H5.4548V10.7784H7.0213V10.2423L7.6025 10.3625V10.6577C7.6025 10.8863 7.5592 11.0416 7.4737 11.1242C7.3879 11.2072 7.2244 11.2483 6.9835 11.2483H5.4927C5.2503 11.2483 5.0866 11.2072 5.0014 11.1242C4.9164 11.0416 4.8739 10.8863 4.8739 10.6577V9.3422C4.8739 9.1154 4.9165 8.9601 5.0014 8.8768C5.0866 8.7934 5.2502 8.7517 5.4927 8.7517H6.9834C7.2244 8.7517 7.3878 8.7934 7.4736 8.8768C7.5591 8.9601 7.6024 9.1154 7.6024 9.3422V9.5782ZM11.4999 9.7932C11.4999 9.9616 11.4555 10.0842 11.3664 10.1606C11.2774 10.2371 11.1341 10.2752 10.9354 10.2752H9.3717V11.2483H8.8V8.7517H10.9354C11.134 8.7517 11.2774 8.7898 11.3664 8.8662C11.4555 8.9426 11.4999 9.0658 11.4999 9.2359V9.7932ZM15.1258 10.6577C15.1258 10.8863 15.0835 11.0416 14.9987 11.1242C14.9135 11.2072 14.7497 11.2483 14.507 11.2483H12.9292C12.6883 11.2483 12.5248 11.2072 12.4389 11.1242C12.3533 11.0416 12.3105 10.8863 12.3105 10.6577V8.7517H12.8912V10.7785H14.5474V8.7517H15.1259V10.6577H15.1258ZM10.8846 9.2277C10.9218 9.2568 10.9403 9.3075 10.9403 9.38V9.6468C10.9403 9.7206 10.9218 9.7724 10.8846 9.8015C10.8474 9.8306 10.7789 9.8452 10.6779 9.8452H9.3717V9.1841H10.6778C10.7789 9.1841 10.8474 9.1984 10.8846 9.2277ZM17.8552 4.1729L15.8268 2.1445C15.7652 2.0824 15.6428 2.032 15.5551 2.032H4.4449C4.3572 2.032 4.2348 2.0825 4.1727 2.1445L2.1446 4.1729C2.0825 4.2348 2.0318 4.3571 2.0318 4.4449V15.5551C2.0318 15.6428 2.0825 15.7652 2.1446 15.8268L4.1728 17.8556C4.2349 17.9177 4.3572 17.9682 4.445 17.9682H15.5552C15.6429 17.9682 15.7653 17.9177 15.8269 17.8556L17.8553 15.8268C17.9173 15.7652 17.9683 15.6428 17.9683 15.5551V4.4449C17.9682 4.3572 17.9172 4.2348 17.8552 4.1729ZM17.1713 15.3843L15.3843 17.1713H4.6154L2.8286 15.3843V4.6157L4.6154 2.8286H15.3842L17.1712 4.6157L17.1713 15.3843Z" fill="#4E61C9"/>
</g>
<defs>
<clipPath id="clip0_233_93">
<rect width="20" height="20" fill="white"/>
</clipPath>
</defs>
</svg>
