<svg width="24" height="24" viewBox="0 0 24 24" fill="none" xmlns="http://www.w3.org/2000/svg">
<path fill-rule="evenodd" clip-rule="evenodd" d="M19.5585 7.05625C20.1599 7.69928 20.719 8.42247 21.2266 9.22C22.2266 10.79 22.2266 13.35 21.2266 14.91C20.0666 16.73 18.6466 18.16 17.0666 19.14C15.4866 20.11 13.7566 20.63 11.9766 20.63C9.73558 20.63 7.56592 19.8058 5.6896 18.2871L9.4604 15.2335C10.1495 15.7821 11.0232 16.11 11.9766 16.11C14.2166 16.11 16.0166 14.3 16.0166 12.07C16.0166 11.422 15.8646 10.8096 15.594 10.2666L19.5585 7.05625ZM18.4246 5.98002L14.649 9.03742C13.938 8.41046 13.0035 8.03 11.9766 8.03C9.73656 8.03 7.93656 9.84 7.93656 12.07C7.93656 12.7907 8.12455 13.4675 8.45463 14.0535L4.53599 17.2268C3.88072 16.5466 3.27363 15.7721 2.72656 14.91C1.72656 13.34 1.72656 10.79 2.72656 9.22C3.88656 7.4 5.30656 5.97 6.88656 4.99C8.46656 4.02 10.1966 3.5 11.9766 3.5C14.2819 3.5 16.5118 4.37646 18.4246 5.98002ZM10.4206 14.456C10.8684 14.7493 11.4031 14.92 11.9766 14.92C13.5466 14.92 14.8366 13.64 14.8366 12.07C14.8366 11.7067 14.7675 11.3584 14.6419 11.0377L10.4206 14.456ZM13.708 9.79943L9.40049 13.2876C9.2249 12.918 9.12656 12.5052 9.12656 12.07C9.12656 10.49 10.4066 9.21 11.9766 9.21C12.6252 9.21 13.2261 9.43022 13.708 9.79943Z" fill="#4E61C9"/>
</svg>
