<svg width="20" height="20" viewBox="0 0 20 20" fill="none" xmlns="http://www.w3.org/2000/svg">
<path d="M16.4285 11.0714V16.4285C16.4285 16.622 16.3578 16.7894 16.2165 16.9308C16.0751 17.0721 15.9077 17.1428 15.7142 17.1428H11.4285V12.8571H8.57138V17.1428H4.28566C4.09221 17.1428 3.9248 17.0721 3.78343 16.9308C3.64206 16.7894 3.57138 16.622 3.57138 16.4285V11.0714C3.57138 11.0639 3.57324 11.0528 3.57696 11.0379C3.58068 11.023 3.58254 11.0119 3.58254 11.0044L9.99995 5.71423L16.4174 11.0044C16.4248 11.0193 16.4285 11.0416 16.4285 11.0714ZM18.9174 10.3013L18.2254 11.1272C18.1659 11.1941 18.0877 11.2351 17.991 11.2499H17.9575C17.8608 11.2499 17.7827 11.2239 17.7232 11.1718L9.99995 4.73209L2.27674 11.1718C2.18745 11.2313 2.09816 11.2574 2.00888 11.2499C1.91215 11.2351 1.83403 11.1941 1.7745 11.1272L1.08254 10.3013C1.02302 10.2269 0.996973 10.1395 1.00441 10.039C1.01185 9.93856 1.05278 9.85858 1.12718 9.79905L9.15174 3.11379C9.38983 2.92033 9.67257 2.82361 9.99995 2.82361C10.3273 2.82361 10.6101 2.92033 10.8482 3.11379L13.5714 5.39057V3.21423C13.5714 3.11007 13.6049 3.0245 13.6718 2.95754C13.7388 2.89057 13.8244 2.85709 13.9285 2.85709H16.0714C16.1755 2.85709 16.2611 2.89057 16.3281 2.95754C16.395 3.0245 16.4285 3.11007 16.4285 3.21423V7.7678L18.8727 9.79905C18.9471 9.85858 18.988 9.93856 18.9955 10.039C19.0029 10.1395 18.9769 10.2269 18.9174 10.3013Z" fill="#4E61C9"/>
</svg>
