<svg width="1118" height="256" viewBox="0 0 1118 256" fill="none" xmlns="http://www.w3.org/2000/svg">
<path d="M108 1.60005C95.2 3.33338 74.8 10.8 62.2667 18.1333C47.4667 26.9333 26.9334 47.4667 18.1334 62.2667C-5.59997 102.4 -5.59997 153.6 18.1334 193.733C26.9334 208.533 47.4667 229.067 62.2667 237.867C102.4 261.6 153.6 261.6 193.733 237.867C208.533 229.067 229.067 208.533 237.867 193.733C261.6 153.6 261.6 102.4 237.867 62.2667C229.067 47.4667 208.533 26.9333 193.733 18.1333C168.533 3.33338 137.867 -2.66662 108 1.60005ZM110.133 83.3333C117.333 88 116.533 101.467 108.933 106.933C105.2 109.6 103.067 110 92 110C84.4 109.867 78.1334 109.2 76.2667 108.267C73.4667 106.667 73.0667 106.933 70 113.733C61.2 132.8 62.8 155.2 73.3334 160.667C82.6667 165.467 99.7334 160.933 108.933 151.2C116.8 142.8 120.133 148.4 114.4 160C106.267 176 79.7334 182 60.2667 172.533C47.0667 166 42 152.533 45.0667 132.4C46.6667 122.8 52.1334 108.667 57.0667 101.6C59.7334 98 59.7334 98 56.5334 92C52.8 85.0667 52.5334 82.9333 55.4667 81.7333C56.6667 81.3333 59.2 82.6667 62.1334 85.4667C66.2667 89.4667 67.0667 89.7333 69.4667 88.2667C84.2667 78.9333 100.533 77.0667 110.133 83.3333ZM195.733 82.1333C200 84.9333 202.667 91.8667 202.667 100V106.8L206.533 104.8C213.6 101.067 214.133 107.467 207.333 114.267C203.333 118.267 202.4 120.4 201.333 127.867C196.533 160.933 182.267 176 156.133 176C142 176 134.533 170.667 131.867 158.8C130.8 154.133 131.467 149.867 136 131.467C141.467 109.2 142.4 100.533 140 95.8667C138.133 92.4 135.6 92.6667 129.333 96.8C123.2 100.933 120.667 100 121.867 94.2667C122.933 88.9333 126.133 85.4667 132.667 82.5333C142.4 78 151.467 80 156.267 87.7333C160.267 94.2667 160 104.4 154.8 126.4C149.733 148.133 149.467 155.067 153.6 157.867C160.533 162.8 172.8 158.667 179.867 149.2C184 143.467 188.933 130.533 189.6 123.467C190 119.867 189.467 119.333 185.467 118.533C175.733 116.533 169.333 108 169.333 97.2C169.333 82.8 184 74.4 195.733 82.1333Z" fill="white"/>
<path d="M85.7333 94.8C82.5333 96.4 80 98.1333 80 98.6667C80 100 86.8 101.333 93.3333 101.333C99.2 101.333 102.533 98.2667 100.4 94.9333C98.4 91.6 92.1333 91.6 85.7333 94.8Z" fill="white"/>
<path d="M185.867 92.6666C184.4 96.5332 187.867 105.333 190.8 105.333C192.133 105.333 192.4 98.1332 191.2 93.5999C190.267 90.2666 186.933 89.5999 185.867 92.6666Z" fill="white"/>
<path d="M334.52 177C324.597 177 317.252 174.638 312.485 169.915C307.762 165.148 305.4 157.803 305.4 147.88V117.98C305.4 107.97 307.762 100.603 312.485 95.88C317.208 91.1133 324.51 88.7733 334.39 88.86H350.12C358.267 88.86 364.485 90.55 368.775 93.93C373.065 97.2667 375.557 102.553 376.25 109.79C376.51 111.61 376.163 112.997 375.21 113.95C374.257 114.903 372.87 115.38 371.05 115.38C367.757 115.38 365.85 113.56 365.33 109.92C364.897 105.933 363.51 103.247 361.17 101.86C358.873 100.473 355.19 99.78 350.12 99.78H334.39C329.797 99.7367 326.178 100.257 323.535 101.34C320.935 102.423 319.072 104.308 317.945 106.995C316.862 109.638 316.32 113.3 316.32 117.98V147.88C316.32 152.517 316.862 156.157 317.945 158.8C319.072 161.443 320.957 163.328 323.6 164.455C326.243 165.538 329.883 166.08 334.52 166.08H350.12C355.19 166.08 358.873 165.387 361.17 164C363.51 162.57 364.897 159.883 365.33 155.94C365.85 152.3 367.757 150.48 371.05 150.48C372.87 150.48 374.257 150.957 375.21 151.91C376.163 152.863 376.51 154.25 376.25 156.07C375.557 163.35 373.065 168.658 368.775 171.995C364.485 175.332 358.267 177 350.12 177H334.52ZM418.668 177C412.038 177 407.098 175.375 403.848 172.125C400.641 168.832 399.038 163.87 399.038 157.24V90.94C399.038 87.3 400.858 85.48 404.498 85.48C408.138 85.48 409.958 87.3 409.958 90.94V157.24C409.958 160.75 410.521 163.112 411.648 164.325C412.818 165.495 415.158 166.08 418.668 166.08C422.394 166.08 424.258 167.9 424.258 171.54C424.388 175.18 422.524 177 418.668 177ZM447.238 100.43C443.121 100.43 441.063 98.35 441.063 94.19V90.355C441.063 86.2817 443.121 84.245 447.238 84.245H451.008C454.951 84.245 456.923 86.2817 456.923 90.355V94.19C456.923 98.35 454.951 100.43 451.008 100.43H447.238ZM449.058 177C445.418 177 443.598 175.18 443.598 171.54V116.55C443.598 112.91 445.418 111.09 449.058 111.09C452.698 111.09 454.518 112.91 454.518 116.55V171.54C454.518 175.18 452.698 177 449.058 177ZM489.357 148.53V151.65C489.357 157.24 490.375 161.053 492.412 163.09C494.449 165.083 498.284 166.08 503.917 166.08H514.577C518.997 166.08 522.269 165.668 524.392 164.845C526.515 164.022 527.924 162.57 528.617 160.49C529.094 158.843 529.744 157.587 530.567 156.72C531.434 155.853 532.734 155.42 534.467 155.42C536.287 155.42 537.674 155.897 538.627 156.85C539.58 157.803 539.884 159.19 539.537 161.01C538.584 166.383 536.027 170.392 531.867 173.035C527.707 175.678 521.944 177 514.577 177H503.917C495.294 177 488.88 174.92 484.677 170.76C480.517 166.6 478.437 160.23 478.437 151.65V136.57C478.437 127.773 480.517 121.317 484.677 117.2C488.88 113.04 495.294 111.003 503.917 111.09H514.577C523.244 111.09 529.657 113.17 533.817 117.33C537.977 121.447 540.057 127.86 540.057 136.57V143.07C540.057 146.71 538.237 148.53 534.597 148.53H489.357ZM503.917 122.01C498.284 121.923 494.449 122.898 492.412 124.935C490.375 126.972 489.357 130.85 489.357 136.57V137.61H529.137V136.57C529.137 130.893 528.119 127.058 526.082 125.065C524.089 123.028 520.254 122.01 514.577 122.01H503.917ZM569.41 177C565.77 177 563.95 175.18 563.95 171.54V116.55C563.95 112.91 565.77 111.09 569.41 111.09C573.05 111.09 574.87 112.91 574.87 116.55V118.695C579.463 113.625 586.223 111.09 595.15 111.09H598.79C607.456 111.09 613.87 113.17 618.03 117.33C622.19 121.49 624.27 127.903 624.27 136.57V171.54C624.27 175.18 622.45 177 618.81 177C615.17 177 613.35 175.18 613.35 171.54V136.57C613.35 130.893 612.31 127.058 610.23 125.065C608.193 123.028 604.38 122.01 598.79 122.01H595.15C589.95 122.01 585.421 122.617 581.565 123.83C577.708 125 575.476 126.863 574.87 129.42V171.54C574.87 175.18 573.05 177 569.41 177ZM677.844 177C669.264 177 662.937 174.963 658.864 170.89C654.791 166.817 652.754 160.533 652.754 152.04V122.01H646.384C642.744 122.01 640.924 120.19 640.924 116.55C640.924 112.91 642.744 111.09 646.384 111.09H652.754V101.6C652.754 97.96 654.574 96.14 658.214 96.14C661.854 96.14 663.674 97.96 663.674 101.6V111.09H678.624C682.264 111.09 684.084 112.91 684.084 116.55C684.084 120.19 682.264 122.01 678.624 122.01H663.674V152.04C663.674 157.543 664.671 161.27 666.664 163.22C668.657 165.127 672.384 166.08 677.844 166.08C679.534 166.08 680.856 166.513 681.809 167.38C682.806 168.247 683.304 169.633 683.304 171.54C683.304 175.18 681.484 177 677.844 177ZM773.056 177C770.802 177 769.026 175.57 767.726 172.71L735.616 96.66C734.966 95.1433 734.792 93.8 735.096 92.63C735.399 91.4167 736.396 90.42 738.086 89.64C741.639 87.8633 744.152 88.7733 745.626 92.37L775.981 164.26H772.211L801.786 92.37C803.216 88.8167 805.729 87.9067 809.326 89.64C810.842 90.42 811.774 91.4167 812.121 92.63C812.511 93.8 812.402 95.1433 811.796 96.66L779.426 172.71C778.082 175.57 776.132 177 773.576 177H773.056ZM842.385 203C836.102 203 831.4 201.418 828.28 198.255C825.204 195.135 823.665 190.433 823.665 184.15C823.665 180.51 825.485 178.69 829.125 178.69C832.765 178.69 834.585 180.51 834.585 184.15C834.585 187.4 835.062 189.523 836.015 190.52C837.012 191.56 839.135 192.08 842.385 192.08H867.605C870.812 192.08 872.914 191.56 873.91 190.52C874.907 189.523 875.405 187.4 875.405 184.15V167.64C872.805 171.54 869.772 174.075 866.305 175.245C862.882 176.415 859.155 177 855.125 177H848.755C840.175 177 833.849 174.963 829.775 170.89C825.702 166.817 823.665 160.533 823.665 152.04V116.55C823.665 112.91 825.485 111.09 829.125 111.09C832.765 111.09 834.585 112.91 834.585 116.55V152.04C834.585 157.5 835.56 161.205 837.51 163.155C839.504 165.105 843.252 166.08 848.755 166.08H855.125C862.232 166.08 867.389 164.932 870.595 162.635C873.802 160.295 875.405 156.763 875.405 152.04V116.55C875.405 112.91 877.225 111.09 880.865 111.09C884.505 111.09 886.325 112.91 886.325 116.55V184.15C886.325 190.433 884.765 195.135 881.645 198.255C878.525 201.418 873.845 203 867.605 203H842.385ZM928.795 177C923.291 177 918.936 175.873 915.73 173.62C912.523 171.323 910.465 167.9 909.555 163.35C909.251 161.53 909.598 160.1 910.595 159.06C911.635 158.02 913.065 157.5 914.885 157.5C916.661 157.5 917.94 157.955 918.72 158.865C919.543 159.732 920.215 161.053 920.735 162.83C921.255 164.13 922.121 164.997 923.335 165.43C924.591 165.863 926.411 166.08 928.795 166.08H950.115C953.495 166.08 955.77 165.538 956.94 164.455C958.11 163.328 958.695 161.01 958.695 157.5C958.695 154.033 958.11 151.737 956.94 150.61C955.77 149.483 953.495 148.92 950.115 148.92H929.185C922.945 148.92 918.243 147.338 915.08 144.175C911.916 141.012 910.335 136.31 910.335 130.07C910.335 123.7 911.873 118.955 914.95 115.835C918.07 112.672 922.815 111.09 929.185 111.09H949.465C959.648 111.09 965.671 115.38 967.535 123.96C967.881 125.78 967.535 127.188 966.495 128.185C965.455 129.182 964.025 129.68 962.205 129.68C960.515 129.68 959.258 129.247 958.435 128.38C957.611 127.47 956.961 126.213 956.485 124.61C955.965 123.57 955.163 122.877 954.08 122.53C953.04 122.183 951.501 122.01 949.465 122.01H929.185C925.891 122.01 923.746 122.508 922.75 123.505C921.753 124.502 921.255 126.69 921.255 130.07C921.255 133.19 921.775 135.292 922.815 136.375C923.898 137.458 926.021 138 929.185 138H950.115C956.615 138 961.49 139.625 964.74 142.875C967.99 146.125 969.615 151 969.615 157.5C969.615 164.043 967.99 168.94 964.74 172.19C961.49 175.397 956.615 177 950.115 177H928.795ZM1015.16 177C1006.53 177 1000.12 174.92 995.917 170.76C991.757 166.6 989.677 160.23 989.677 151.65V136.57C989.677 127.86 991.757 121.447 995.917 117.33C1000.12 113.17 1006.53 111.09 1015.16 111.09H1025.82C1034.48 111.09 1040.9 113.17 1045.06 117.33C1049.22 121.49 1051.3 127.903 1051.3 136.57V151.52C1051.3 160.143 1049.22 166.557 1045.06 170.76C1040.9 174.92 1034.48 177 1025.82 177H1015.16ZM1000.6 151.65C1000.6 157.24 1001.62 161.053 1003.65 163.09C1005.69 165.083 1009.52 166.08 1015.16 166.08H1025.82C1031.49 166.08 1035.33 165.062 1037.32 163.025C1039.36 160.988 1040.38 157.153 1040.38 151.52V136.57C1040.38 130.893 1039.36 127.058 1037.32 125.065C1035.33 123.028 1031.49 122.01 1025.82 122.01H1015.16C1011.39 122.01 1008.44 122.443 1006.32 123.31C1004.24 124.133 1002.76 125.607 1001.9 127.73C1001.03 129.81 1000.6 132.757 1000.6 136.57V151.65ZM1080.65 177C1077.01 177 1075.19 175.18 1075.19 171.54V116.55C1075.19 112.91 1077.01 111.09 1080.65 111.09C1084.29 111.09 1086.11 112.91 1086.11 116.55V121.62C1088.67 118.153 1091.92 115.532 1095.86 113.755C1099.85 111.978 1104.4 111.09 1109.51 111.09C1113.15 111.09 1114.97 112.91 1114.97 116.55C1114.97 120.19 1113.15 122.01 1109.51 122.01C1102.01 122.01 1096.29 123.397 1092.35 126.17C1088.41 128.943 1086.33 132.605 1086.11 137.155V171.54C1086.11 175.18 1084.29 177 1080.65 177Z" fill="white"/>
</svg>
