<svg width="20" height="20" viewBox="0 0 20 20" fill="none" xmlns="http://www.w3.org/2000/svg">
<path d="M6.31995 8.55997H8.91995C8.83995 8.35997 8.71995 8.19997 8.63995 8.03997L6.87995 8.31997L5.31995 8.07997L5.19995 8.35997C5.23995 8.35997 5.31995 8.35997 5.35995 8.35997C5.75995 8.31997 6.07995 8.39997 6.31995 8.55997ZM10.76 9.15997L13.08 11.04C13.04 10.92 13.04 10.84 13.04 10.76C13.04 9.75997 13.84 8.91997 14.88 8.91997C15.88 8.91997 16.72 9.71997 16.72 10.76C16.72 10.88 16.68 11.08 16.64 11.24L17.88 10.8L16.12 8.03997C16.04 7.91997 15.88 7.83997 15.72 7.83997L13.08 8.27997L11.36 7.99997C11.2 8.39997 11 8.75997 10.76 9.15997Z" fill="#4E61C9"/>
<path d="M19.52 13.4L18.08 11.16L16.44 11.76C16.12 12.6 15.56 13.68 15.2 14.32C15.04 14.6 14.68 14.6 14.52 14.32C14.16 13.68 13.6 12.6 13.28 11.76L10.48 9.52C10.36 9.64 10.16 9.68 9.96001 9.68C9.68001 9.68 9.40001 9.52 9.24001 9.28C9.20001 9.2 9.12001 9.08 9.08001 9H6.76001C7.04001 9.32 7.20001 9.76 7.20001 10.2C7.20001 10.24 7.20001 10.24 7.20001 10.28C7.64001 10.32 7.96001 10.4 8.20001 10.76C8.68001 11.48 8.04001 11.92 8.36001 12.4C8.60001 12.8 9.00001 12.68 9.88001 12.84L11.52 13.08C12.08 13.16 12.44 13.64 12.4 14.2V14.96L15.44 16.48L19.44 14C19.6 13.84 19.64 13.6 19.52 13.4Z" fill="#4E61C9"/>
<path d="M11.52 13.4801C9.19998 13.0401 8.47998 13.2801 8.07998 12.6001C7.59998 11.8801 8.31998 11.5201 7.95998 10.9601C7.79998 10.7201 7.59998 10.6801 7.19998 10.6801C6.95998 11.6001 6.19998 13.0001 5.75998 13.8401C5.59998 14.1201 5.19998 14.1201 5.03998 13.8401C4.47998 12.8401 3.51998 10.9201 3.51998 10.2001C3.51998 9.40006 3.99998 8.72006 4.71998 8.44006L4.95998 7.96006L4.27998 7.84006C4.11998 7.80006 3.95998 7.88006 3.87998 8.04006L0.479976 13.4001C0.359976 13.6001 0.399976 13.8401 0.599976 13.9601L4.55998 16.4401L9.99998 13.7601L12 14.7601L12.08 14.1601C12.08 13.8001 11.88 13.5201 11.52 13.4801ZM10.36 9.08006C10.92 8.08006 11.88 6.16006 11.88 5.44006C11.88 4.40006 11.04 3.56006 9.99998 3.56006C8.95998 3.56006 8.11998 4.40006 8.11998 5.44006C8.11998 6.20006 9.11998 8.08006 9.63998 9.08006C9.83998 9.36006 10.24 9.36006 10.36 9.08006ZM8.99998 5.40006C8.99998 4.84006 9.43998 4.40006 10.04 4.40006C10.6 4.40006 11.04 4.84006 11.04 5.40006C11.04 5.96006 10.6 6.40006 10.04 6.40006C9.47998 6.44006 8.99998 5.96006 8.99998 5.40006Z" fill="#4E61C9"/>
<path d="M14.88 11.76C15.4323 11.76 15.88 11.3123 15.88 10.76C15.88 10.2077 15.4323 9.76001 14.88 9.76001C14.3277 9.76001 13.88 10.2077 13.88 10.76C13.88 11.3123 14.3277 11.76 14.88 11.76Z" fill="#4E61C9"/>
<path d="M5.40002 11.2C5.95231 11.2 6.40002 10.7522 6.40002 10.2C6.40002 9.64767 5.95231 9.19995 5.40002 9.19995C4.84774 9.19995 4.40002 9.64767 4.40002 10.2C4.40002 10.7522 4.84774 11.2 5.40002 11.2Z" fill="#4E61C9"/>
</svg>
