<svg width="20" height="20" viewBox="0 0 20 20" fill="none" xmlns="http://www.w3.org/2000/svg">
<g clip-path="url(#clip0_233_18)">
<path d="M13.4687 10.9813C12.6206 12.2608 11.7014 13.4919 10.7156 14.6688C10.6075 14.7933 10.4684 14.887 10.3125 14.9406V18.9688L14.1031 17.6156L13.4687 10.9813ZM9.28436 14.6656C8.29742 13.4908 7.37823 12.2607 6.53123 10.9813L5.90623 17.6156L9.68748 18.9688V14.9406C9.53071 14.8871 9.39138 14.7921 9.28436 14.6656ZM14.7312 17.6469L18.6437 19.0438C18.696 19.0639 18.7527 19.0696 18.8079 19.0603C18.8631 19.0511 18.9148 19.0271 18.9576 18.991C19.0004 18.955 19.0327 18.908 19.0511 18.8552C19.0696 18.8023 19.0735 18.7455 19.0625 18.6906L17.8125 12.1281C17.8025 12.0776 17.7801 12.0303 17.7474 11.9905C17.7147 11.9507 17.6726 11.9196 17.625 11.9L14.0437 10.4094L14.7312 17.6469ZM1.35623 19.0438L5.26873 17.6469L5.95623 10.4094L2.38123 11.9C2.3336 11.9196 2.29155 11.9507 2.25884 11.9905C2.22613 12.0303 2.20376 12.0776 2.19373 12.1281L0.943734 18.6906C0.933318 18.7448 0.937421 18.8007 0.955626 18.8528C0.973831 18.9049 1.00549 18.9512 1.04739 18.987C1.08928 19.0229 1.13992 19.047 1.19417 19.057C1.24841 19.067 1.30433 19.0624 1.35623 19.0438ZM10.2375 14.2656C10.4344 14.0344 15 8.60938 15 5.9375C15 4.61142 14.4732 3.33965 13.5355 2.40197C12.5978 1.46428 11.3261 0.9375 9.99998 0.9375C8.6739 0.9375 7.40213 1.46428 6.46445 2.40197C5.52677 3.33965 4.99998 4.61142 4.99998 5.9375C4.99998 8.60938 9.56561 14.0344 9.76248 14.2656C9.79182 14.2999 9.82824 14.3275 9.86924 14.3464C9.91024 14.3652 9.95484 14.375 9.99998 14.375C10.0451 14.375 10.0897 14.3652 10.1307 14.3464C10.1717 14.3275 10.2081 14.2999 10.2375 14.2656ZM7.81248 5.9375C7.81248 5.50485 7.94078 5.08192 8.18114 4.72219C8.42151 4.36246 8.76315 4.08208 9.16286 3.91651C9.56258 3.75095 10.0024 3.70763 10.4267 3.79203C10.8511 3.87644 11.2409 4.08478 11.5468 4.3907C11.8527 4.69663 12.061 5.08641 12.1455 5.51074C12.2299 5.93507 12.1865 6.37491 12.021 6.77462C11.8554 7.17433 11.575 7.51597 11.2153 7.75634C10.8556 7.99671 10.4326 8.125 9.99998 8.125C9.41982 8.125 8.86342 7.89453 8.45319 7.4843C8.04295 7.07406 7.81248 6.51766 7.81248 5.9375Z" fill="#4E61C9"/>
</g>
<defs>
<clipPath id="clip0_233_18">
<rect width="20" height="20" fill="white"/>
</clipPath>
</defs>
</svg>
