<svg width="25" height="25" viewBox="0 0 25 25" fill="none" xmlns="http://www.w3.org/2000/svg">
<path d="M12.7374 13.0156C11.4113 13.0156 10.1396 12.4888 9.20189 11.5512C8.26421 10.6135 7.73743 9.34171 7.73743 8.01562H9.73743C9.73743 8.81127 10.0535 9.57434 10.6161 10.1369C11.1787 10.6996 11.9418 11.0156 12.7374 11.0156C13.5331 11.0156 14.2961 10.6996 14.8587 10.1369C15.4214 9.57434 15.7374 8.81127 15.7374 8.01562H17.7374C17.7374 9.34171 17.2106 10.6135 16.273 11.5512C15.3353 12.4888 14.0635 13.0156 12.7374 13.0156ZM12.7374 3.01562C13.5331 3.01563 14.2961 3.3317 14.8587 3.8943C15.4214 4.45691 15.7374 5.21998 15.7374 6.01562H9.73743C9.73743 5.21998 10.0535 4.45691 10.6161 3.8943C11.1787 3.3317 11.9418 3.01563 12.7374 3.01562ZM19.7374 6.01562H17.7374C17.7374 5.35902 17.6081 4.70884 17.3568 4.10221C17.1056 3.49558 16.7373 2.94438 16.273 2.48009C15.8087 2.0158 15.2575 1.6475 14.6508 1.39623C14.0442 1.14495 13.394 1.01563 12.7374 1.01562C11.4113 1.01563 10.1396 1.54241 9.20189 2.48009C8.26421 3.41777 7.73743 4.68954 7.73743 6.01562H5.73743C4.62743 6.01562 3.73743 6.90562 3.73743 8.01562V20.0156C3.73743 20.5461 3.94814 21.0548 4.32321 21.4298C4.69829 21.8049 5.20699 22.0156 5.73743 22.0156H19.7374C20.2679 22.0156 20.7766 21.8049 21.1516 21.4298C21.5267 21.0548 21.7374 20.5461 21.7374 20.0156V8.01562C21.7374 6.90562 20.8374 6.01562 19.7374 6.01562Z" fill="#4E61C9"/>
</svg>
