<svg width="40" height="40" viewBox="0 0 40 40" fill="none" xmlns="http://www.w3.org/2000/svg">
<path d="M20 21.3334C19.2045 21.3334 18.4414 21.0173 17.8788 20.4547C17.8788 20.4547 17.8788 20.4546 17.8788 20.4546M20 21.3334L18.2323 16.5656C17.7634 17.0344 17.5 17.6703 17.5 18.3334C17.5 18.9964 17.7634 19.6323 18.2323 20.1011L17.8788 20.4546M20 21.3334C20.7957 21.3334 21.5588 21.0173 22.1214 20.4547C22.684 19.8921 23 19.129 23 18.3334C23 17.5377 22.684 16.7746 22.1214 16.212C21.5588 15.6495 20.7957 15.3334 20 15.3334C19.2045 15.3334 18.4414 15.6495 17.8788 16.212L20 21.3334ZM17.8788 20.4546C17.3161 19.892 17 19.129 17 18.3334C17 17.5377 17.3161 16.7746 17.8788 16.212L17.8788 20.4546ZM20 28.4727C19.8374 28.3122 19.6232 28.0961 19.373 27.8327C18.7881 27.2171 18.0092 26.3459 17.2315 25.3225C15.6551 23.2483 14.1667 20.6556 14.1667 18.3334C14.1667 15.1095 16.7762 12.5 20 12.5C23.2239 12.5 25.8334 15.1095 25.8334 18.3334C25.8334 20.6556 24.3451 23.2483 22.7687 25.3225C21.9909 26.3458 21.212 27.2171 20.6271 27.8327C20.3769 28.0961 20.1627 28.3122 20 28.4727Z" fill="white" stroke="#FC4E4E"/>
</svg>
