<svg width="20" height="20" viewBox="0 0 20 20" fill="none" xmlns="http://www.w3.org/2000/svg">
<path d="M13.6407 13.0782C14.0821 13.2305 13.2032 12.9258 13.6407 13.0782Z" fill="#4E61C9"/>
<path d="M13.6406 13.0781C13.1133 12.8946 12.543 12.8828 12.0156 12.6992C11.8555 12.6446 11.5391 12.5781 11.4727 12.3946C11.4102 12.2149 11.4102 12.0039 11.3984 11.8164C11.3906 11.668 11.3867 11.5196 11.3867 11.3711C11.3867 11.2735 11.6367 11.0664 11.6914 10.9766C11.9023 10.625 11.9219 10.1524 11.9609 9.75393C12.3008 9.84768 12.3438 9.21877 12.4023 9.02737C12.4453 8.89456 12.707 7.98049 12.3008 8.10549C12.3984 7.93362 12.4375 7.72268 12.4648 7.53127C12.543 7.03127 12.5742 6.4844 12.4219 5.99612C12.1055 4.98049 11.1328 4.41018 10.1055 4.37893C9.0625 4.34377 8.01562 4.84377 7.625 5.85549C7.4375 6.34768 7.45312 6.88284 7.51562 7.39846C7.54297 7.63284 7.58203 7.89456 7.69922 8.10549C7.32031 7.99221 7.52344 8.7969 7.56641 8.93752C7.62891 9.13674 7.68359 9.85159 8.03906 9.75393C8.07031 10.0703 8.10547 10.3946 8.19141 10.7031C8.25 10.9102 8.37109 11.086 8.51172 11.2461C8.58203 11.3242 8.61719 11.3321 8.61328 11.4336C8.60937 11.7383 8.61719 12.0664 8.53906 12.3633C8.46094 12.6602 7.80859 12.7852 7.54687 12.8399C6.84375 12.9844 6.19531 13.0508 5.60938 13.4883C4.92578 13.9922 4.57031 14.7774 4.57031 15.625H15.4297C15.4297 14.4727 14.7344 13.4571 13.6406 13.0781Z" fill="#4E61C9"/>
<path d="M5.59766 12.5977L5.66016 12.5664C5.64844 12.5703 5.63672 12.5781 5.62891 12.582C5.61719 12.5859 5.60938 12.5898 5.59766 12.5977Z" fill="#4E61C9"/>
<path d="M5.59766 12.5977C5.46484 12.6641 5.30469 12.7461 5.62891 12.582L5.66016 12.5664C5.92578 12.4414 6.21094 12.4102 6.49609 12.3828C6.60547 12.3711 6.65625 12.2969 6.57422 12.1914C6.41797 11.9922 5.87891 11.9531 5.65234 11.8633C5.51172 11.8086 5.47266 11.7578 5.46094 11.6016C5.45703 11.5312 5.41797 11.2187 5.47266 11.168C5.51172 11.1289 5.75781 11.1445 5.8125 11.1367C6.03516 11.1094 6.26172 11.0625 6.47266 10.9805C6.5625 10.9453 6.64844 10.9023 6.72656 10.8477C6.82031 10.7773 6.65625 10.6055 6.61328 10.5117C6.48047 10.2188 6.42187 9.89844 6.40234 9.57812C6.36328 8.94922 6.46094 8.31641 6.34375 7.69141C6.16797 6.73437 5.42969 6.25391 4.48828 6.25391C3.90625 6.25391 3.33203 6.45312 3.00781 6.96094C2.64844 7.51953 2.66797 8.21484 2.6875 8.85156C2.69922 9.21484 2.71484 9.58203 2.66406 9.94531C2.64062 10.1016 2.60547 10.2539 2.55078 10.4023C2.50781 10.5156 2.28906 10.7969 2.375 10.8555C2.69922 11.0859 3.24609 11.1641 3.63672 11.1328C3.64844 11.3242 3.68359 11.5703 3.61328 11.75C3.50391 12.0312 2.6875 12.1055 2.44141 12.1875C1.75781 12.4141 1.25 12.9687 1.25 13.75H4.35547C4.40625 13.75 4.60156 13.3867 4.65625 13.3281C4.92187 13.0352 5.24609 12.7812 5.59766 12.5977Z" fill="#4E61C9"/>
<path d="M17.5507 12.1836C17.2343 12.082 16.625 12.0508 16.3984 11.7773C16.2851 11.6406 16.3476 11.293 16.3593 11.1289C16.5312 11.1445 16.7187 11.1172 16.8945 11.0937C17.0547 11.0703 17.2109 11.0391 17.3632 10.9844C17.4336 10.957 17.5039 10.9297 17.5703 10.8906C17.7226 10.8008 17.6523 10.7852 17.5742 10.6523C17.1484 9.9375 17.3398 9.03125 17.3203 8.24609C17.3047 7.59375 17.1328 6.8789 16.539 6.51172C16.0039 6.17968 15.2109 6.16797 14.6367 6.40234C12.9804 7.0664 13.957 9.26172 13.3906 10.5195C13.2929 10.7305 13.1523 10.8047 13.3984 10.9297C13.5351 11 13.6836 11.0469 13.832 11.082C14.0586 11.1367 14.2929 11.168 14.5273 11.1758C14.5664 11.1758 14.539 11.668 14.5273 11.7187C14.4843 11.9102 14.0664 11.9648 13.9101 12.0078C13.75 12.0508 13.4843 12.0625 13.4062 12.2305C13.289 12.4805 13.7929 12.418 13.9179 12.4414C14.3203 12.5156 14.6757 12.7383 14.9882 12.9922C15.2226 13.1836 15.539 13.4414 15.625 13.7539H18.7578C18.75 12.9687 18.2382 12.4102 17.5507 12.1836Z" fill="#4E61C9"/>
</svg>
