<svg width="24" height="24" viewBox="0 0 24 24" fill="none" xmlns="http://www.w3.org/2000/svg">
<path d="M21.25 9.22C18.94 5.59 15.56 3.5 12 3.5C10.22 3.5 8.49 4.02 6.91 4.99C5.33 5.97 3.91 7.4 2.75 9.22C1.75 10.79 1.75 13.34 2.75 14.91C5.06 18.55 8.44 20.63 12 20.63C13.78 20.63 15.51 20.11 17.09 19.14C18.67 18.16 20.09 16.73 21.25 14.91C22.25 13.35 22.25 10.79 21.25 9.22ZM12 16.11C9.76 16.11 7.96 14.3 7.96 12.07C7.96 9.84 9.76 8.03 12 8.03C14.24 8.03 16.04 9.84 16.04 12.07C16.04 14.3 14.24 16.11 12 16.11Z" fill="#4E61C9"/>
<path d="M11.9999 9.20996C10.4299 9.20996 9.1499 10.49 9.1499 12.07C9.1499 13.64 10.4299 14.92 11.9999 14.92C13.5699 14.92 14.8599 13.64 14.8599 12.07C14.8599 10.5 13.5699 9.20996 11.9999 9.20996Z" fill="#4E61C9"/>
</svg>
