<svg width="25" height="25" viewBox="0 0 25 25" fill="none" xmlns="http://www.w3.org/2000/svg">
<path d="M19.3311 3.08203H5.33105C4.22105 3.08203 3.33105 3.97203 3.33105 5.08203V8.08203C3.33105 8.63432 3.77877 9.08203 4.33105 9.08203V9.08203C4.88334 9.08203 5.33105 8.63432 5.33105 8.08203V6.08203C5.33105 5.52975 5.77877 5.08203 6.33105 5.08203H18.3311C18.8833 5.08203 19.3311 5.52975 19.3311 6.08203V18.082C19.3311 18.6343 18.8833 19.082 18.3311 19.082H6.33106C5.77877 19.082 5.33105 18.6343 5.33105 18.082V16.082C5.33105 15.5297 4.88334 15.082 4.33105 15.082V15.082C3.77877 15.082 3.33105 15.5297 3.33105 16.082V19.082C3.33105 19.6125 3.54177 20.1212 3.91684 20.4962C4.29191 20.8713 4.80062 21.082 5.33105 21.082H19.3311C19.8615 21.082 20.3702 20.8713 20.7453 20.4962C21.1203 20.1212 21.3311 19.6125 21.3311 19.082V5.08203C21.3311 3.97203 20.4311 3.08203 19.3311 3.08203ZM11.1209 14.9549C10.7291 15.3452 10.7307 15.9817 11.1217 16.3727V16.3727C11.5123 16.7632 12.1476 16.7654 12.5382 16.3749L16.1239 12.7891C16.5145 12.3986 16.5145 11.7654 16.1239 11.3749L12.5357 7.78664C12.1461 7.39709 11.5145 7.39637 11.1236 7.78454V7.78454C10.7307 8.17465 10.7292 8.81014 11.1207 9.20164L11.2939 9.37492C11.9239 10.0049 11.4777 11.082 10.5868 11.082H4.33105C3.77877 11.082 3.33105 11.5297 3.33105 12.082V12.082C3.33105 12.6343 3.77877 13.082 4.33105 13.082H10.5802C11.4721 13.082 11.9178 14.1611 11.286 14.7905L11.1209 14.9549Z" fill="#fff"/>
</svg>
